<svg width="24" height="24" viewBox="0 0 24 24" fill="none" xmlns="http://www.w3.org/2000/svg">
<path d="M24 12C24 18.6273 18.6273 24 12 24C5.37267 24 0 18.6273 0 12C0 5.37267 5.37267 0 12 0C18.6273 0 24 5.37267 24 12Z" fill="#FFCC4D"/>
<path d="M19.3323 6.66452C15.6296 6.66452 14.1309 3.75319 14.0689 3.62919C13.9043 3.29985 14.0376 2.89919 14.367 2.73452C14.6956 2.57052 15.095 2.70252 15.2603 3.02985C15.3103 3.12719 16.4743 5.33119 19.3323 5.33119C19.701 5.33119 19.9989 5.62985 19.9989 5.99785C19.9989 6.36585 19.701 6.66452 19.3323 6.66452ZM4.66562 6.66452C4.29762 6.66452 3.99895 6.36585 3.99895 5.99785C3.99895 5.62985 4.29762 5.33119 4.66562 5.33119C8.05428 5.33119 8.66295 3.25119 8.68762 3.16252C8.78428 2.81052 9.14895 2.59719 9.50028 2.68985C9.85362 2.78252 10.0676 3.13852 9.97895 3.49319C9.94628 3.62252 9.13495 6.66452 4.66562 6.66452ZM3.99962 15.3312C3.79695 15.3312 3.59695 15.2392 3.46562 15.0645C3.24428 14.7705 3.30428 14.3525 3.59895 14.1319C3.69428 14.0605 5.56628 12.6765 8.16962 12.1765C6.51962 11.3492 4.68828 11.3312 4.66495 11.3312C4.29695 11.3305 3.99895 11.0312 3.99962 10.6632C3.99962 10.2959 4.29762 9.99785 4.66562 9.99785C4.81295 9.99785 8.30028 10.0232 10.4703 12.1932C10.661 12.3839 10.7183 12.6705 10.615 12.9199C10.5116 13.1692 10.2683 13.3312 9.99895 13.3312C6.92362 13.3312 4.42362 15.1792 4.39895 15.1979C4.27895 15.2879 4.13828 15.3312 3.99962 15.3312ZM19.9983 15.3305C19.8596 15.3305 19.7196 15.2879 19.5996 15.1985C19.5743 15.1792 17.059 13.3312 13.999 13.3312C13.7296 13.3312 13.4856 13.1692 13.383 12.9199C13.2796 12.6705 13.337 12.3839 13.5276 12.1932C15.6983 10.0232 19.1849 9.99785 19.3323 9.99785C19.7003 9.99785 19.9976 10.2959 19.9983 10.6632C19.999 11.0312 19.701 11.3299 19.3336 11.3312C19.3096 11.3312 17.4783 11.3492 15.8283 12.1765C18.4316 12.6765 20.3036 14.0599 20.3983 14.1319C20.6923 14.3525 20.7523 14.7692 20.5323 15.0639C20.4016 15.2379 20.2016 15.3305 19.9983 15.3305ZM16.9683 20.5252C16.8896 20.3539 15.0096 16.3312 12.1616 16.3312C9.32895 16.3312 7.13095 20.3359 7.03895 20.5059C6.96362 20.6452 6.99695 20.8185 7.11828 20.9199C7.18028 20.9719 7.25628 20.9979 7.33228 20.9979C7.40562 20.9979 7.47895 20.9739 7.53962 20.9252C7.56028 20.9092 9.64828 19.2725 12.1616 19.2725C14.6569 19.2725 16.4203 20.8925 16.4376 20.9085C16.5543 21.0165 16.7323 21.0285 16.8603 20.9352C16.9896 20.8419 17.035 20.6705 16.9683 20.5252Z" fill="#664500"/>
</svg>
