<svg width="24" height="24" viewBox="0 0 24 24" fill="none" xmlns="http://www.w3.org/2000/svg">
<path d="M24 12C24 18.6273 18.6273 24 12 24C5.37333 24 0 18.6273 0 12C0 5.37333 5.37333 0 12 0C18.6273 0 24 5.37333 24 12Z" fill="#FFCC4D"/>
<path d="M18.9726 11.866C18.9326 11.776 17.9733 9.66797 16.0013 9.66797C14.03 9.66797 13.07 11.776 13.03 11.866C12.9686 12.004 13.0086 12.1653 13.1266 12.26C13.2433 12.3546 13.4106 12.358 13.5333 12.2693C13.5413 12.2633 14.3746 11.668 16.0013 11.668C17.6186 11.668 18.4506 12.2553 18.4693 12.2686C18.528 12.3126 18.5986 12.3346 18.668 12.3346C18.7413 12.3346 18.8153 12.31 18.876 12.262C18.994 12.1673 19.0346 12.0046 18.9726 11.866ZM10.9726 11.866C10.9326 11.776 9.9733 9.66797 8.0013 9.66797C6.02997 9.66797 5.06997 11.776 5.02997 11.866C4.96864 12.004 5.00864 12.1653 5.12597 12.26C5.2433 12.3546 5.41064 12.358 5.53264 12.2693C5.5413 12.2633 6.37397 11.668 8.0013 11.668C9.61864 11.668 10.4506 12.2553 10.4693 12.2686C10.528 12.3126 10.5986 12.3346 10.668 12.3346C10.7413 12.3346 10.8153 12.31 10.876 12.262C10.9946 12.1673 11.034 12.0046 10.9726 11.866ZM12.0013 14.668C9.58597 14.668 7.9833 14.3866 6.0013 14.0013C5.54864 13.914 4.66797 14.0013 4.66797 15.3346C4.66797 18.0013 7.7313 21.3346 12.0013 21.3346C16.2706 21.3346 19.3346 18.0013 19.3346 15.3346C19.3346 14.0013 18.454 13.9133 18.0013 14.0013C16.0193 14.3866 14.4166 14.668 12.0013 14.668Z" fill="#664500"/>
<path d="M6 15.332C6 15.332 8 15.9987 12 15.9987C16 15.9987 18 15.332 18 15.332C18 15.332 16.6667 17.9987 12 17.9987C7.33333 17.9987 6 15.332 6 15.332Z" fill="white"/>
</svg>
