<svg width="24" height="24" viewBox="0 0 24 24" fill="none" xmlns="http://www.w3.org/2000/svg">
<path d="M24 12C24 18.6273 18.6273 24 12 24C5.37333 24 0 18.6273 0 12C0 5.37333 5.37333 0 12 0C18.6273 0 24 5.37333 24 12Z" fill="#FFCC4D"/>
<path d="M7.66667 13.3346C8.58714 13.3346 9.33333 12.29 9.33333 11.0013C9.33333 9.71264 8.58714 8.66797 7.66667 8.66797C6.74619 8.66797 6 9.71264 6 11.0013C6 12.29 6.74619 13.3346 7.66667 13.3346Z" fill="#664500"/>
<path d="M16.3346 13.3346C17.2551 13.3346 18.0013 12.29 18.0013 11.0013C18.0013 9.71264 17.2551 8.66797 16.3346 8.66797C15.4142 8.66797 14.668 9.71264 14.668 11.0013C14.668 12.29 15.4142 13.3346 16.3346 13.3346Z" fill="#664500"/>
<path d="M16.668 17.3333H7.33464C6.96664 17.3333 6.66797 17.0353 6.66797 16.6667C6.66797 16.298 6.96664 16 7.33464 16H16.668C17.0366 16 17.3346 16.298 17.3346 16.6667C17.3346 17.0353 17.0366 17.3333 16.668 17.3333Z" fill="#664500"/>
</svg>
