<svg width="25" height="24" viewBox="0 0 25 24" fill="none" xmlns="http://www.w3.org/2000/svg">
<path d="M12.5 24C19.1274 24 24.5 18.6274 24.5 12C24.5 5.37258 19.1274 0 12.5 0C5.87258 0 0.5 5.37258 0.5 12C0.5 18.6274 5.87258 24 12.5 24Z" fill="#FFCC4D"/>
<path d="M7.51011 15.746C7.54011 15.8654 8.28878 18.6654 12.5001 18.6654C16.7121 18.6654 17.4601 15.8654 17.4901 15.746C17.5268 15.6014 17.4614 15.4514 17.3321 15.3767C17.2021 15.3027 17.0394 15.3247 16.9321 15.428C16.9194 15.4407 15.6294 16.6654 12.5001 16.6654C9.37078 16.6654 8.08011 15.4407 8.06811 15.4287C8.00411 15.3654 7.91878 15.332 7.83344 15.332C7.77744 15.332 7.72078 15.346 7.66944 15.3747C7.53878 15.4494 7.47344 15.6007 7.51011 15.746Z" fill="#664500"/>
<path d="M8.4987 11.3346C9.41917 11.3346 10.1654 10.29 10.1654 9.0013C10.1654 7.71264 9.41917 6.66797 8.4987 6.66797C7.57822 6.66797 6.83203 7.71264 6.83203 9.0013C6.83203 10.29 7.57822 11.3346 8.4987 11.3346Z" fill="#664500"/>
<path d="M16.4987 11.3346C17.4192 11.3346 18.1654 10.29 18.1654 9.0013C18.1654 7.71264 17.4192 6.66797 16.4987 6.66797C15.5782 6.66797 14.832 7.71264 14.832 9.0013C14.832 10.29 15.5782 11.3346 16.4987 11.3346Z" fill="#664500"/>
</svg>
