<svg width="25" height="24" viewBox="0 0 25 24" fill="none" xmlns="http://www.w3.org/2000/svg">
<path d="M12.5 24C19.1274 24 24.5 18.6274 24.5 12C24.5 5.37258 19.1274 0 12.5 0C5.87258 0 0.5 5.37258 0.5 12C0.5 18.6274 5.87258 24 12.5 24Z" fill="#FFCC4D"/>
<path d="M17.4901 18.2514C17.4601 18.132 16.7115 15.332 12.5001 15.332C8.28812 15.332 7.54012 18.132 7.51012 18.2514C7.47345 18.396 7.53878 18.546 7.66812 18.6207C7.79812 18.6947 7.96078 18.6727 8.06812 18.5694C8.08078 18.5567 9.37078 17.332 12.5001 17.332C15.6295 17.332 16.9201 18.5567 16.9321 18.5687C16.9961 18.632 17.0815 18.6654 17.1668 18.6654C17.2228 18.6654 17.2795 18.6514 17.3308 18.6227C17.4615 18.548 17.5268 18.3967 17.4901 18.2514Z" fill="#664500"/>
<path d="M8.4987 11.3346C9.41917 11.3346 10.1654 10.29 10.1654 9.0013C10.1654 7.71264 9.41917 6.66797 8.4987 6.66797C7.57822 6.66797 6.83203 7.71264 6.83203 9.0013C6.83203 10.29 7.57822 11.3346 8.4987 11.3346Z" fill="#664500"/>
<path d="M16.4987 11.3346C17.4192 11.3346 18.1654 10.29 18.1654 9.0013C18.1654 7.71264 17.4192 6.66797 16.4987 6.66797C15.5782 6.66797 14.832 7.71264 14.832 9.0013C14.832 10.29 15.5782 11.3346 16.4987 11.3346Z" fill="#664500"/>
</svg>
